<?xml version="1.0" standalone="no"?>
<!DOCTYPE svg PUBLIC "-//W3C//DTD SVG 20010904//EN"
 "http://www.w3.org/TR/2001/REC-SVG-20010904/DTD/svg10.dtd">
<svg version="1.0" xmlns="http://www.w3.org/2000/svg"
 width="812.000000pt" height="812.000000pt" viewBox="0 0 812.000000 812.000000"
 preserveAspectRatio="xMidYMid meet">
<metadata>
Created by potrace 1.14, written by Peter Selinger 2001-2017
</metadata>
<g transform="translate(0.000000,812.000000) scale(0.100000,-0.100000)"
fill="#000000" stroke="none">
<path d="M2137 7464 c-1 -1 -38 -4 -82 -8 -418 -32 -847 -208 -1179 -484 -138
-115 -322 -318 -401 -443 -5 -9 -23 -35 -39 -59 -76 -115 -184 -346 -226 -485
-29 -95 -58 -206 -65 -250 -40 -253 -47 -494 -21 -671 3 -22 9 -57 12 -79 41
-275 174 -611 333 -840 63 -92 76 -109 93 -128 9 -10 34 -41 55 -67 21 -27
749 -760 1618 -1629 1483 -1483 1584 -1582 1645 -1610 147 -69 294 -60 425 24
50 33 3165 3146 3221 3219 16 21 37 48 48 60 10 11 51 71 91 131 146 220 249
462 304 718 41 189 50 283 46 502 -2 105 -6 201 -9 215 -3 13 -8 42 -11 65
-11 74 -15 91 -44 206 -44 176 -112 344 -213 529 -113 209 -356 485 -560 636
-94 71 -186 134 -193 134 -2 0 -31 16 -65 36 -223 131 -518 222 -841 260 -64
7 -336 7 -389 0 -25 -4 -79 -11 -120 -17 -363 -51 -755 -227 -1044 -467 -44
-37 -165 -151 -268 -253 l-188 -187 -200 198 c-254 253 -367 344 -575 467 -27
16 -170 86 -225 111 -162 72 -429 140 -625 158 -65 6 -303 12 -308 8z m1922
-4543 c-13 -11 -26 -17 -29 -14 -6 6 30 33 43 33 5 0 -1 -9 -14 -19z"/>
</g>
</svg>
