<?xml version="1.0" standalone="no"?>
<!DOCTYPE svg PUBLIC "-//W3C//DTD SVG 20010904//EN"
 "http://www.w3.org/TR/2001/REC-SVG-20010904/DTD/svg10.dtd">
<svg version="1.0" xmlns="http://www.w3.org/2000/svg"
 width="900.000000pt" height="900.000000pt" viewBox="0 0 900.000000 900.000000"
 preserveAspectRatio="xMidYMid meet">
<metadata>
Created by potrace 1.14, written by Peter Selinger 2001-2017
</metadata>
<g transform="translate(0.000000,900.000000) scale(0.100000,-0.100000)"
fill="#000000" stroke="none">
<path d="M2567 7905 c-1 -2 -36 -5 -77 -9 -739 -64 -1400 -519 -1723 -1186
-117 -240 -182 -469 -212 -740 -5 -53 -6 -317 -1 -375 40 -415 179 -776 429
-1115 54 -73 440 -465 1671 -1696 1085 -1085 1616 -1609 1646 -1626 127 -68
274 -71 404 -6 54 26 243 212 1636 1605 866 866 1593 1597 1615 1625 22 28 48
60 59 72 50 57 171 256 229 376 78 160 115 264 156 432 49 204 60 306 56 538
-3 158 -15 274 -39 390 -117 556 -442 1036 -912 1348 -185 123 -459 246 -639
287 -88 20 -219 45 -260 50 -27 3 -66 8 -85 10 -43 6 -331 6 -380 1 -19 -3
-57 -7 -85 -10 -27 -4 -72 -11 -100 -16 -27 -5 -61 -11 -75 -14 -63 -10 -276
-75 -337 -102 -17 -8 -34 -14 -38 -14 -6 0 -204 -98 -246 -122 -69 -39 -225
-150 -297 -210 -45 -38 -166 -152 -267 -253 l-185 -183 -178 177 c-172 170
-284 273 -367 337 -58 44 -163 114 -171 114 -4 0 -15 6 -23 14 -19 17 -164 92
-241 124 -30 13 -64 28 -75 33 -56 24 -237 78 -320 95 -11 2 -31 6 -45 9 -73
16 -109 21 -211 31 -62 5 -307 13 -312 9z m1932 -4544 c-13 -11 -26 -17 -29
-14 -6 6 30 33 43 33 5 0 -1 -9 -14 -19z"/>
</g>
</svg>
